<svg width="43" height="14" viewBox="0 0 43 14" fill="none" xmlns="http://www.w3.org/2000/svg">
<path d="M10.3196 4.33333C10.3196 4.50914 10.2633 4.681 10.1578 4.82718C10.0523 4.97335 9.90237 5.08728 9.72694 5.15456C9.5515 5.22184 9.35846 5.23944 9.17222 5.20514C8.98598 5.17085 8.81491 5.08619 8.68064 4.96187C8.54637 4.83756 8.45493 4.67918 8.41788 4.50675C8.38084 4.33432 8.39985 4.1556 8.47252 3.99317C8.54519 3.83075 8.66824 3.69192 8.82613 3.59425C8.98402 3.49658 9.16964 3.44445 9.35953 3.44445C9.61416 3.44445 9.85836 3.5381 10.0384 3.7048C10.2185 3.87149 10.3196 4.09759 10.3196 4.33333ZM14.4 4.77778C14.4002 4.88766 14.371 4.99587 14.3151 5.0928C14.2592 5.18972 14.1783 5.27235 14.0796 5.33333L12.9599 6.02333V7C12.958 8.59076 12.2746 10.1159 11.0596 11.2407C9.8447 12.3655 8.19744 12.9982 6.47926 13H1.19876C0.972778 12.9998 0.751455 12.9405 0.560267 12.8289C0.369079 12.7174 0.215794 12.5581 0.118054 12.3695C0.0203139 12.1808 -0.01791 11.9704 0.00778118 11.7626C0.0334724 11.5547 0.122035 11.3578 0.263276 11.1944L0.272277 11.1844L5.27915 5.62111V4.605C5.27915 2.62667 6.99351 1.00945 9.1009 1H9.1195C9.9208 0.999232 10.7022 1.23075 11.3542 1.66208C12.0061 2.0934 12.4959 2.70289 12.7546 3.405L14.0796 4.22222C14.1783 4.28321 14.2592 4.36584 14.3151 4.46276C14.371 4.55969 14.4002 4.6679 14.4 4.77778ZM12.382 4.77778L11.7405 4.38167C11.5921 4.29082 11.4852 4.15228 11.4405 3.99278C11.3062 3.51757 11.0055 3.09697 10.5856 2.79673C10.1656 2.49649 9.65008 2.33353 9.1195 2.33334H9.1081C7.79098 2.33945 6.71988 3.35834 6.71988 4.605V5.86222C6.71984 6.01839 6.66059 6.16959 6.55246 6.28945L1.71301 11.6667H2.94193L7.12672 7.01778C7.18631 6.94789 7.26041 6.88977 7.34466 6.84683C7.42891 6.80389 7.52159 6.77702 7.61724 6.76778C7.71289 6.75855 7.80957 6.76715 7.90157 6.79308C7.99357 6.819 8.07903 6.86173 8.15291 6.91873C8.22678 6.97574 8.28758 7.04586 8.3317 7.12497C8.37583 7.20409 8.40239 7.29058 8.40982 7.37935C8.41725 7.46812 8.4054 7.55737 8.37496 7.64183C8.34453 7.72629 8.29613 7.80425 8.23262 7.87111L4.8165 11.6667H6.47926C7.81563 11.6653 9.09687 11.1733 10.0418 10.2984C10.9868 9.42349 11.5183 8.23727 11.5197 7V5.66667C11.5196 5.55674 11.5489 5.44849 11.6049 5.35156C11.6609 5.25463 11.7419 5.17203 11.8408 5.11111L12.382 4.77778Z" fill="#53BC6B"/>
<path d="M18.3867 1.60286C18.3867 1.35714 18.4582 1.16286 18.601 1.02C18.7439 0.877143 18.9382 0.805714 19.1839 0.805714H22.0124C22.0524 0.868571 22.0867 0.951429 22.1153 1.05429C22.1496 1.15714 22.1667 1.26571 22.1667 1.38C22.1667 1.59714 22.1182 1.75143 22.021 1.84286C21.9296 1.93429 21.8067 1.98 21.6524 1.98H19.8439V2.77714H21.7724C21.8124 2.84 21.8467 2.92286 21.8753 3.02571C21.9096 3.12286 21.9267 3.22857 21.9267 3.34286C21.9267 3.56 21.881 3.71429 21.7896 3.80571C21.6982 3.89714 21.5753 3.94286 21.421 3.94286H19.8439V4.84286H22.0467C22.0867 4.90571 22.121 4.98857 22.1496 5.09143C22.1839 5.19429 22.201 5.30286 22.201 5.41714C22.201 5.63429 22.1524 5.79143 22.0553 5.88857C21.9639 5.98 21.841 6.02571 21.6867 6.02571H19.1839C18.9382 6.02571 18.7439 5.95429 18.601 5.81143C18.4582 5.66857 18.3867 5.47429 18.3867 5.22857V1.60286ZM24.2971 0.96C24.3943 0.902857 24.54 0.848571 24.7343 0.797143C24.9343 0.745714 25.1343 0.72 25.3343 0.72C25.62 0.72 25.8714 0.762857 26.0886 0.848571C26.3114 0.928571 26.4543 1.05714 26.5171 1.23429C26.62 1.53143 26.7314 1.87714 26.8514 2.27143C26.9714 2.66571 27.0914 3.07429 27.2114 3.49714C27.3314 3.91429 27.4486 4.32857 27.5628 4.74C27.6771 5.14571 27.7771 5.50571 27.8628 5.82C27.7943 5.9 27.6914 5.96286 27.5543 6.00857C27.4171 6.06 27.2543 6.08571 27.0657 6.08571C26.9286 6.08571 26.8114 6.07429 26.7143 6.05143C26.6228 6.02857 26.5457 5.99429 26.4828 5.94857C26.4257 5.90286 26.3771 5.84286 26.3371 5.76857C26.3028 5.69429 26.2714 5.60857 26.2428 5.51143L26.0886 4.92H24.5371C24.4914 5.09143 24.4457 5.26857 24.4 5.45143C24.3543 5.63429 24.3086 5.81143 24.2628 5.98286C24.1828 6.01143 24.0971 6.03429 24.0057 6.05143C23.92 6.07429 23.8143 6.08571 23.6886 6.08571C23.3971 6.08571 23.18 6.03714 23.0371 5.94C22.9 5.83714 22.8314 5.69714 22.8314 5.52C22.8314 5.44 22.8428 5.36 22.8657 5.28C22.8886 5.2 22.9143 5.10571 22.9428 4.99714C22.9828 4.84286 23.0371 4.65143 23.1057 4.42286C23.18 4.19429 23.26 3.94857 23.3457 3.68571C23.4314 3.41714 23.5228 3.14286 23.62 2.86286C23.7171 2.58286 23.8086 2.32 23.8943 2.07429C23.98 1.82286 24.0571 1.6 24.1257 1.40571C24.2 1.21143 24.2571 1.06286 24.2971 0.96ZM25.3257 2.06571C25.2457 2.30571 25.1543 2.57429 25.0514 2.87143C24.9543 3.16286 24.8657 3.46 24.7857 3.76286H25.8486C25.7686 3.45429 25.6857 3.15429 25.6 2.86286C25.52 2.56571 25.4457 2.3 25.3771 2.06571H25.3257ZM30.0567 4.32V5.96571C29.9939 5.98286 29.8939 6 29.7567 6.01714C29.6253 6.03429 29.4939 6.04286 29.3624 6.04286C29.231 6.04286 29.1139 6.03143 29.011 6.00857C28.9139 5.99143 28.831 5.95714 28.7624 5.90571C28.6996 5.85429 28.651 5.78286 28.6167 5.69143C28.5824 5.6 28.5653 5.48 28.5653 5.33143V1.29429C28.5653 1.17429 28.5967 1.08286 28.6596 1.02C28.7282 0.951428 28.8196 0.897143 28.9339 0.857143C29.1282 0.788571 29.3539 0.74 29.611 0.711428C29.8682 0.677143 30.1424 0.66 30.4339 0.66C31.2224 0.66 31.8167 0.825714 32.2167 1.15714C32.6167 1.48857 32.8167 1.93714 32.8167 2.50286C32.8167 2.85714 32.7253 3.16 32.5424 3.41143C32.3596 3.66286 32.1424 3.85714 31.891 3.99429C32.0967 4.27429 32.2996 4.53714 32.4996 4.78286C32.6996 5.02857 32.8567 5.25143 32.971 5.45143C32.9139 5.65143 32.8082 5.80571 32.6539 5.91429C32.5053 6.01714 32.3367 6.06857 32.1482 6.06857C32.0224 6.06857 31.9139 6.05429 31.8224 6.02571C31.731 5.99714 31.651 5.95714 31.5824 5.90571C31.5139 5.85429 31.451 5.79143 31.3939 5.71714C31.3367 5.64286 31.2824 5.56286 31.231 5.47714L30.511 4.32H30.0567ZM30.5967 3.18C30.8139 3.18 30.9853 3.12571 31.111 3.01714C31.2367 2.90286 31.2996 2.73714 31.2996 2.52C31.2996 2.30286 31.2282 2.14 31.0853 2.03143C30.9482 1.91714 30.7282 1.86 30.4253 1.86C30.3396 1.86 30.271 1.86286 30.2196 1.86857C30.1682 1.87429 30.111 1.88286 30.0482 1.89429V3.18H30.5967ZM34.5857 6.02571C34.3399 6.02571 34.1457 5.95429 34.0028 5.81143C33.8599 5.66857 33.7885 5.47429 33.7885 5.22857V0.797143C33.8514 0.785714 33.9514 0.771428 34.0885 0.754285C34.2257 0.731428 34.3571 0.72 34.4828 0.72C34.6142 0.72 34.7285 0.731428 34.8257 0.754285C34.9285 0.771428 35.0142 0.805714 35.0828 0.857143C35.1514 0.908571 35.2028 0.98 35.2371 1.07143C35.2714 1.16286 35.2885 1.28286 35.2885 1.43143V4.81714H37.2514C37.2914 4.88 37.3285 4.96571 37.3628 5.07429C37.3971 5.17714 37.4142 5.28571 37.4142 5.4C37.4142 5.62857 37.3657 5.79143 37.2685 5.88857C37.1714 5.98 37.0428 6.02571 36.8828 6.02571H34.5857ZM40.3312 5.96571C40.2683 5.98286 40.1712 6 40.0398 6.01714C39.9083 6.03429 39.7798 6.04286 39.6541 6.04286C39.3912 6.04286 39.1941 6 39.0626 5.91429C38.9312 5.82286 38.8655 5.63429 38.8655 5.34857V4.19143C38.7226 3.98 38.5683 3.74571 38.4026 3.48857C38.2369 3.23143 38.0741 2.96857 37.9141 2.7C37.7541 2.43143 37.6055 2.16857 37.4683 1.91143C37.3312 1.64857 37.2198 1.40857 37.1341 1.19143C37.2083 1.08857 37.3083 0.994285 37.4341 0.908571C37.5655 0.822857 37.7255 0.78 37.9141 0.78C38.1369 0.78 38.3169 0.825714 38.4541 0.917143C38.5969 1.00857 38.7312 1.18 38.8569 1.43143L39.5683 2.86286H39.6198C39.6998 2.68571 39.7683 2.52571 39.8255 2.38286C39.8883 2.23429 39.9483 2.08857 40.0055 1.94571C40.0626 1.79714 40.1226 1.64571 40.1855 1.49143C40.2483 1.33143 40.3198 1.14857 40.3998 0.942857C40.5026 0.891428 40.6169 0.851428 40.7426 0.822857C40.8683 0.794286 40.9883 0.78 41.1026 0.78C41.3026 0.78 41.4712 0.834286 41.6083 0.942857C41.7512 1.04571 41.8226 1.20286 41.8226 1.41429C41.8226 1.48286 41.8083 1.56571 41.7798 1.66286C41.7512 1.76 41.6855 1.90857 41.5826 2.10857C41.4798 2.30286 41.3283 2.56857 41.1283 2.90571C40.9341 3.24286 40.6683 3.68286 40.3312 4.22571V5.96571ZM20.1285 11.9286C20.2085 11.9514 20.3113 11.9686 20.437 11.98C20.5628 11.9857 20.6828 11.9886 20.797 11.9886C21.0256 11.9886 21.2142 11.9429 21.3628 11.8514C21.517 11.7543 21.5942 11.6057 21.5942 11.4057C21.5942 11.2171 21.5313 11.0829 21.4056 11.0029C21.2799 10.9229 21.0885 10.8829 20.8313 10.8829H20.1285V11.9286ZM20.1285 9.83714H20.7542C20.9999 9.83714 21.177 9.79143 21.2856 9.7C21.3999 9.60857 21.457 9.47429 21.457 9.29714C21.457 9.14286 21.3913 9.02 21.2599 8.92857C21.1342 8.83714 20.9428 8.79143 20.6856 8.79143C20.5999 8.79143 20.4999 8.79429 20.3856 8.8C20.277 8.80571 20.1913 8.81429 20.1285 8.82571V9.83714ZM20.6856 13.1371C20.5885 13.1371 20.4742 13.1343 20.3428 13.1286C20.2113 13.1229 20.0742 13.1114 19.9313 13.0943C19.7942 13.0771 19.657 13.0543 19.5199 13.0257C19.3828 13.0029 19.257 12.9686 19.1428 12.9229C18.8285 12.8029 18.6713 12.5943 18.6713 12.2971V8.29429C18.6713 8.17429 18.7028 8.08286 18.7656 8.02C18.8342 7.95143 18.9256 7.89714 19.0399 7.85714C19.2342 7.78857 19.477 7.74 19.7685 7.71143C20.0599 7.67714 20.3599 7.66 20.6685 7.66C21.3999 7.66 21.9628 7.78286 22.357 8.02857C22.7513 8.27429 22.9485 8.65429 22.9485 9.16857C22.9485 9.42571 22.8742 9.64857 22.7256 9.83714C22.577 10.02 22.377 10.1543 22.1256 10.24C22.4113 10.32 22.6485 10.4657 22.837 10.6771C23.0313 10.8886 23.1285 11.1543 23.1285 11.4743C23.1285 12.04 22.917 12.46 22.4942 12.7343C22.077 13.0029 21.4742 13.1371 20.6856 13.1371ZM25.4783 12.9657C25.4154 12.9829 25.3154 13 25.1783 13.0171C25.0468 13.0343 24.9154 13.0429 24.784 13.0429C24.6525 13.0429 24.5354 13.0314 24.4325 13.0086C24.3354 12.9914 24.2525 12.9571 24.184 12.9057C24.1154 12.8543 24.064 12.7829 24.0297 12.6914C23.9954 12.6 23.9783 12.48 23.9783 12.3314V7.80571C24.0411 7.79429 24.1411 7.78 24.2783 7.76286C24.4154 7.74 24.5468 7.72857 24.6725 7.72857C24.804 7.72857 24.9183 7.74 25.0154 7.76286C25.1183 7.78 25.204 7.81429 25.2725 7.86571C25.3411 7.91714 25.3925 7.98857 25.4268 8.08C25.4611 8.17143 25.4783 8.29143 25.4783 8.44V12.9657ZM28.0813 11.32V12.9657C28.0184 12.9829 27.9184 13 27.7813 13.0171C27.6499 13.0343 27.5184 13.0429 27.387 13.0429C27.2556 13.0429 27.1384 13.0314 27.0356 13.0086C26.9384 12.9914 26.8556 12.9571 26.787 12.9057C26.7241 12.8543 26.6756 12.7829 26.6413 12.6914C26.607 12.6 26.5899 12.48 26.5899 12.3314V8.29429C26.5899 8.17429 26.6213 8.08286 26.6841 8.02C26.7527 7.95143 26.8441 7.89714 26.9584 7.85714C27.1527 7.78857 27.3784 7.74 27.6356 7.71143C27.8927 7.67714 28.167 7.66 28.4584 7.66C29.247 7.66 29.8413 7.82571 30.2413 8.15714C30.6413 8.48857 30.8413 8.93714 30.8413 9.50286C30.8413 9.85714 30.7499 10.16 30.567 10.4114C30.3841 10.6629 30.167 10.8571 29.9156 10.9943C30.1213 11.2743 30.3241 11.5371 30.5241 11.7829C30.7241 12.0286 30.8813 12.2514 30.9956 12.4514C30.9384 12.6514 30.8327 12.8057 30.6784 12.9143C30.5299 13.0171 30.3613 13.0686 30.1727 13.0686C30.047 13.0686 29.9384 13.0543 29.847 13.0257C29.7556 12.9971 29.6756 12.9571 29.607 12.9057C29.5384 12.8543 29.4756 12.7914 29.4184 12.7171C29.3613 12.6429 29.307 12.5629 29.2556 12.4771L28.5356 11.32H28.0813ZM28.6213 10.18C28.8384 10.18 29.0099 10.1257 29.1356 10.0171C29.2613 9.90286 29.3241 9.73714 29.3241 9.52C29.3241 9.30286 29.2527 9.14 29.1099 9.03143C28.9727 8.91714 28.7527 8.86 28.4499 8.86C28.3641 8.86 28.2956 8.86286 28.2441 8.86857C28.1927 8.87429 28.1356 8.88286 28.0727 8.89429V10.18H28.6213ZM33.3045 11.8857C33.3674 11.8971 33.4445 11.9086 33.5359 11.92C33.6274 11.9257 33.7131 11.9286 33.7931 11.9286C33.9874 11.9286 34.1645 11.9 34.3245 11.8429C34.4902 11.7857 34.6302 11.6971 34.7445 11.5771C34.8645 11.4571 34.9559 11.3029 35.0188 11.1143C35.0874 10.92 35.1216 10.6886 35.1216 10.42C35.1216 9.90571 35.0016 9.52 34.7616 9.26286C34.5216 9 34.2016 8.86857 33.8016 8.86857C33.7216 8.86857 33.6388 8.87143 33.5531 8.87714C33.4731 8.88286 33.3902 8.89143 33.3045 8.90286V11.8857ZM33.7845 13.1371C33.6874 13.1371 33.5759 13.1343 33.4502 13.1286C33.3245 13.1229 33.1931 13.1114 33.0559 13.0943C32.9245 13.0771 32.7902 13.0543 32.6531 13.0257C32.5216 13.0029 32.3988 12.9686 32.2845 12.9229C31.9702 12.8029 31.8131 12.5943 31.8131 12.2971V8.29429C31.8131 8.17429 31.8445 8.08286 31.9074 8.02C31.9759 7.95143 32.0674 7.89714 32.1816 7.85714C32.4274 7.77714 32.6874 7.72571 32.9616 7.70286C33.2359 7.67429 33.4816 7.66 33.6988 7.66C34.1445 7.66 34.5474 7.71429 34.9074 7.82286C35.2731 7.93143 35.5845 8.1 35.8416 8.32857C36.1045 8.55143 36.3074 8.83429 36.4502 9.17714C36.5931 9.52 36.6645 9.92571 36.6645 10.3943C36.6645 10.8514 36.5959 11.2514 36.4588 11.5943C36.3216 11.9314 36.1245 12.2171 35.8674 12.4514C35.6159 12.68 35.3131 12.8514 34.9588 12.9657C34.6045 13.08 34.2131 13.1371 33.7845 13.1371ZM38.9961 10.9343C38.7446 10.8486 38.5161 10.7629 38.3103 10.6771C38.1046 10.5857 37.9275 10.4771 37.7789 10.3514C37.6303 10.2257 37.5132 10.0771 37.4275 9.90571C37.3475 9.72857 37.3075 9.51429 37.3075 9.26286C37.3075 8.77714 37.4932 8.38857 37.8646 8.09714C38.2418 7.80571 38.7675 7.66 39.4418 7.66C39.6875 7.66 39.9161 7.67714 40.1275 7.71143C40.3389 7.74571 40.5189 7.8 40.6675 7.87429C40.8218 7.94286 40.9418 8.03429 41.0275 8.14857C41.1132 8.25714 41.1561 8.38571 41.1561 8.53429C41.1561 8.68286 41.1218 8.81143 41.0532 8.92C40.9846 9.02286 40.9018 9.11143 40.8046 9.18571C40.6789 9.10571 40.5103 9.03714 40.2989 8.98C40.0875 8.91714 39.8561 8.88571 39.6046 8.88571C39.3475 8.88571 39.1589 8.92286 39.0389 8.99714C38.9189 9.06571 38.8589 9.15429 38.8589 9.26286C38.8589 9.34857 38.8961 9.42 38.9703 9.47714C39.0446 9.52857 39.1561 9.57714 39.3046 9.62286L39.7589 9.76857C40.2961 9.94 40.7075 10.16 40.9932 10.4286C41.2846 10.6914 41.4303 11.0514 41.4303 11.5086C41.4303 11.9943 41.2389 12.3886 40.8561 12.6914C40.4732 12.9886 39.9103 13.1371 39.1675 13.1371C38.9046 13.1371 38.6589 13.1143 38.4303 13.0686C38.2075 13.0286 38.0103 12.9686 37.8389 12.8886C37.6732 12.8029 37.5418 12.7 37.4446 12.58C37.3532 12.4543 37.3075 12.3114 37.3075 12.1514C37.3075 11.9857 37.3561 11.8457 37.4532 11.7314C37.5503 11.6114 37.6561 11.52 37.7703 11.4571C37.9303 11.5829 38.1246 11.6914 38.3532 11.7829C38.5875 11.8743 38.8418 11.92 39.1161 11.92C39.3961 11.92 39.5932 11.8771 39.7075 11.7914C39.8218 11.7057 39.8789 11.6057 39.8789 11.4914C39.8789 11.3771 39.8332 11.2914 39.7418 11.2343C39.6503 11.1714 39.5218 11.1114 39.3561 11.0543L38.9961 10.9343Z" fill="#53BC6B"/>
</svg>
