<svg width="16" height="15" viewBox="0 0 16 15" fill="none" xmlns="http://www.w3.org/2000/svg">
<path opacity="0.3" fill-rule="evenodd" clip-rule="evenodd" d="M2.2706 12.4123C2.58518 12.6875 3.09522 12.6875 3.4098 12.4123L7.67339 8.68161L11.937 12.4123C12.2516 12.6875 12.7616 12.6875 13.0762 12.4123C13.3907 12.137 13.3907 11.6907 13.0762 11.4155L8.24298 7.18642C7.9284 6.91117 7.41837 6.91117 7.10379 7.18642L2.2706 11.4155C1.95602 11.6907 1.95602 12.137 2.2706 12.4123Z" fill="#F8F5EC"/>
<path opacity="0.3" fill-rule="evenodd" clip-rule="evenodd" d="M2.2706 7.7145C2.58518 7.98976 3.09522 7.98976 3.4098 7.7145L7.67339 3.98386L11.937 7.7145C12.2516 7.98976 12.7616 7.98976 13.0762 7.7145C13.3907 7.43924 13.3907 6.99296 13.0762 6.71771L8.24298 2.48867C7.9284 2.21341 7.41837 2.21341 7.10379 2.48867L2.2706 6.71771C1.95602 6.99296 1.95602 7.43924 2.2706 7.7145Z" fill="#F8F5EC"/>
</svg>
